<?xml version="1.0" encoding="utf-8"?><!--Generator: Adobe Illustrator 15.1.0, SVG Export Plug-In . SVG Version: 6.00 Build 0)--><!DOCTYPE svg PUBLIC "-//W3C//DTD SVG 1.1//EN" "http://www.w3.org/Graphics/SVG/1.1/DTD/svg11.dtd"><svg version="1.1" id="Calque_1" xmlns="http://www.w3.org/2000/svg" xmlns:xlink="http://www.w3.org/1999/xlink" x="0px" y="0px" width="792.793px" height="572.973px" viewBox="3.604 14.595 792.793 572.973" enable-background="new 3.604 14.595 792.793 572.973" xml:space="preserve"><g><polygon fill="#FFDD00" points="144.144,405.946 3.604,405.946 3.604,14.595 144.144,14.595 144.144,39.82 29.549,39.82 
		29.549,379.999 144.144,379.999 	"/><path fill="#FFFFFF" d="M144.144,139.28v3.604c0,5.045-2.883,7.207-7.928,7.207h-20.901v130.45c0,5.045-2.883,7.207-7.928,7.207
		h-6.486c-5.045,0-7.928-2.883-7.928-7.207V150.09H72.072c-5.045,0-7.928-2.162-7.928-7.207v-3.604c0-5.045,2.883-7.208,7.928-7.208
		h64.865C141.982,132.072,144.144,134.235,144.144,139.28"/><path fill="#FFFFFF" d="M188.108,205.585h16.577c11.532,0,17.297-5.045,17.297-18.738v-18.019c0-13.693-5.766-18.738-17.297-18.738
		h-16.577V205.585z M240,288.468h-5.766c-4.324,0-6.487-1.441-7.928-5.766l-19.459-58.378l0,0h-17.297v56.937
		c0,5.045-2.883,7.207-7.207,7.207h-5.766c-5.045,0-7.208-2.883-7.208-7.207V139.28c0-5.045,2.163-7.208,7.208-7.208h30.991
		c23.063,0,36.757,10.091,36.757,33.153v25.946c0,15.855-6.486,25.226-18.018,30.271l20.18,59.099
		C247.207,284.865,245.045,288.468,240,288.468"/><path fill="#FFFFFF" d="M320.721,233.694l-12.252-75.676l-12.252,75.676H320.721z M341.622,288.468h-5.766
		c-4.324,0-6.487-2.162-7.208-6.486l-5.045-30.271h-30.991l-4.325,29.55c-0.721,4.324-3.604,6.486-7.207,6.486h-5.045
		c-4.324,0-6.487-2.883-5.766-7.928l25.225-141.261c0.721-4.324,3.604-6.487,7.207-6.487h11.532c3.604,0,6.486,2.163,7.207,6.487
		l25.946,141.981C348.829,285.585,346.667,288.468,341.622,288.468"/><path fill="#FFFFFF" d="M449.729,232.252v23.784c0,23.063-14.414,32.432-38.919,32.432h-0.721
		c-24.504,0-38.918-9.369-38.918-32.432v-92.253c0-22.342,14.414-32.433,38.918-32.433h0.721c24.505,0,38.919,10.091,38.919,32.433
		v20.181c0,4.324-2.162,7.207-7.207,7.207h-6.486c-5.045,0-7.207-2.883-7.207-7.207v-15.856c0-13.693-5.766-18.018-17.298-18.018
		c-11.531,0-17.297,5.045-17.297,18.018v83.604c0,13.694,5.766,18.019,17.297,18.019c11.532,0,17.298-5.045,17.298-18.019v-20.18
		c0-4.324,2.883-7.207,7.207-7.207h6.486C447.567,225.045,449.729,227.207,449.729,232.252"/><path fill="#FFFFFF" d="M544.865,288.468h-5.767c-4.324,0-6.486-1.441-7.928-5.766l-23.063-69.188l-14.415,26.666v40.36
		c0,5.045-2.883,7.207-7.207,7.207h-5.766c-5.045,0-7.207-2.883-7.207-7.207V139.28c0-5.045,2.162-7.208,7.207-7.208h5.766
		c4.324,0,7.207,2.884,7.207,7.208v67.747l32.433-69.909c1.441-3.604,4.324-5.767,7.928-5.767h7.208
		c5.766,0,7.928,3.604,5.045,8.649l-26.667,50.45l30.991,89.369C552.793,284.865,549.91,288.468,544.865,288.468"/><path fill="#FFFFFF" d="M511.712,330.27h-17.298v119.64h17.298c11.531,0,18.018-5.045,18.018-18.738v-82.162
		C529.729,335.315,523.964,330.27,511.712,330.27 M551.352,344.685v90.09c0,23.063-14.415,33.153-38.919,33.153h-31.712
		c-5.045,0-7.207-2.883-7.207-7.208V319.459c0-5.045,2.162-7.207,7.207-7.207h31.712
		C536.937,311.531,551.352,321.621,551.352,344.685"/><path fill="#FFFFFF" d="M626.307,413.873l-12.253-75.676l-12.252,75.676H626.307z M647.207,467.928h-5.766
		c-4.324,0-6.486-2.162-7.207-6.487l-5.045-30.27h-30.991l-5.045,30.27c-0.721,4.325-3.604,6.487-7.207,6.487h-5.045
		c-4.325,0-6.487-2.883-5.767-7.929l25.946-141.981c0.721-4.324,3.604-6.486,7.207-6.486h11.532c3.604,0,6.486,2.162,7.207,6.486
		l25.945,141.981C653.693,465.045,651.531,467.928,647.207,467.928"/><path fill="#FFFFFF" d="M704.865,460.72c0,5.046-2.883,7.208-7.208,7.208h-5.766c-4.324,0-7.207-2.883-7.207-7.208v-50.45
		l-28.829-90.811c-1.441-5.045,0.721-7.928,5.767-7.928h6.486c4.324,0,6.486,2.162,7.928,6.486l18.738,69.189l18.739-69.189
		c0.721-4.324,3.604-6.486,7.928-6.486h6.486c5.045,0,7.207,3.604,5.766,7.928l-28.828,90.811V460.72z"/><polygon fill="#FFDD00" points="796.396,585.406 655.855,585.406 655.855,560.18 770.45,560.18 770.45,220 655.855,220 
		655.855,194.054 796.396,194.054 	"/><path fill="#FFFFFF" d="M599.64,583.964l7.928-54.055l11.531,54.055c0,0.721,0.721,1.441,1.441,1.441h0.721
		c0.721,0,1.441-0.721,1.441-1.441l9.37-61.982c0-0.721,0-1.441-1.441-1.441h-0.721c-0.721,0-1.441,0.721-1.441,1.441l-7.928,54.054
		l-10.812-54.054c0-0.721-0.721-1.441-1.441-1.441h-0.721c-0.721,0-1.441,0.721-1.441,1.441l-9.369,61.982
		c0,0.721,0,1.441,1.441,1.441l0,0C598.919,584.685,599.64,584.685,599.64,583.964 M565.045,570.27l5.766-35.315
		c1.441-8.648,4.324-11.531,11.532-11.531c7.207,0,8.648,3.604,7.928,11.531l-5.766,35.315c-1.441,8.648-4.325,11.531-11.532,11.531
		S564.324,578.918,565.045,570.27 M567.928,533.513l-5.766,38.198c-1.441,8.648,2.883,13.694,10.09,13.694h0.721
		c9.37,0,12.974-5.046,14.415-13.694l5.766-38.919c1.441-8.648-2.883-13.693-10.09-13.693h-0.721
		C572.973,519.82,569.369,524.144,567.928,533.513 M549.189,583.964l9.369-61.982c0-0.721,0-1.441-1.441-1.441h-0.721
		c-0.721,0-1.441,0.721-1.441,1.441l-9.369,61.982c0,0.721,0,1.441,1.441,1.441h0.721
		C548.469,584.685,548.469,584.685,549.189,583.964 M541.982,541.441l1.441-7.928c1.441-8.648-2.884-12.973-10.091-12.973l0,0
		c-8.648,0-12.973,4.324-14.414,12.973l-0.721,7.207c-0.721,4.325,0.721,7.208,4.324,10.091l7.928,5.766
		c4.324,2.883,5.766,5.045,5.045,10.09l-0.721,5.045c-1.441,7.928-4.324,11.532-10.811,11.532s-8.648-3.604-7.207-11.532
		l1.441-7.207c0-0.721,0-1.441-1.441-1.441h-0.721c-0.721,0-1.441,0.721-1.441,1.441l-1.441,9.369
		c-1.441,9.37,2.883,13.694,10.09,13.694l0,0c9.369,0,12.973-4.324,14.414-13.694l1.441-7.928c0.721-5.766-1.441-8.648-4.324-10.811
		l-7.928-5.766c-4.324-2.883-5.766-4.324-5.045-9.37l0.721-4.324c1.441-7.928,4.324-11.531,10.811-11.531
		c6.487,0,8.649,3.604,7.208,11.531l-0.721,6.487c0,0.721,0,1.441,1.441,1.441h-0.721
		C541.262,542.883,541.982,542.162,541.982,541.441 M508.829,541.441l1.441-7.928c1.441-8.648-2.883-12.973-10.091-12.973l0,0
		c-8.648,0-12.973,4.324-14.414,12.973l-0.721,7.207c-0.721,4.325,0.721,7.208,4.324,10.091l7.928,5.766
		c4.324,2.883,5.767,5.045,5.045,10.09l-0.721,5.045c-1.441,7.928-4.324,11.532-10.811,11.532s-8.648-3.604-7.207-11.532
		l1.441-7.207c0-0.721,0-1.441-1.441-1.441h-0.721c-0.721,0-1.441,0.721-1.441,1.441L480,573.873
		c-1.441,9.37,2.883,13.694,10.09,13.694l0,0c9.369,0,12.974-4.324,14.415-13.694l1.441-7.928c0.721-5.766-1.441-8.648-4.324-10.811
		l-7.929-5.766c-4.324-2.883-5.766-4.324-5.045-9.37l0.721-4.324c1.441-7.928,4.324-11.531,10.811-11.531
		c6.487,0,8.649,3.604,7.208,11.531l-0.721,6.487c0,0.721,0,1.441,1.441,1.441h0.721
		C508.108,542.883,508.108,542.162,508.829,541.441 M452.612,564.504l12.974-37.478l1.441,37.478H452.612z M471.352,583.243
		l-2.883-61.262c0-0.721-0.721-1.441-1.441-1.441h-0.721c-0.721,0-1.441,0-1.441,1.441l-21.622,61.982c0,0.721,0,1.441,0.721,1.441
		h0.721c0.721,0,1.441,0,1.441-1.441l5.766-15.856h15.856l0.721,15.856c0,0.721,0.721,1.441,1.441,1.441h0.721
		C471.352,584.685,471.352,584.685,471.352,583.243 M441.802,542.162c-1.441,8.648-4.324,11.531-11.531,11.531h-9.37l4.325-30.271
		h9.369c7.207,0,8.648,3.604,7.928,11.531L441.802,542.162z M436.036,520.54h-11.531c-0.721,0-1.441,0.721-1.441,1.441l-9.37,61.982
		c0,0.721,0,1.441,1.441,1.441h0.721c0.721,0,1.441-0.721,1.441-1.441l4.325-25.946h9.369c9.369,0,12.973-5.045,14.414-13.693
		l1.441-9.37C447.567,524.865,443.243,520.54,436.036,520.54 M379.82,583.964L379.82,583.964c0-1.441,0-2.163-0.721-2.163h-17.297
		l4.324-27.387h14.415c0.721,0,1.441-0.721,1.441-1.441v-0.721c0-0.721,0-1.441-1.441-1.441h-14.415l4.324-26.667h16.577
		c0.721,0,1.441-0.721,1.441-1.441v-0.721c0-0.721,0-1.441-1.441-1.441h-18.739c-0.721,0-1.441,0.721-1.441,1.441l-9.369,61.982
		c0,0.721,0,1.441,1.441,1.441h18.739C379.099,584.685,379.099,584.685,379.82,583.964 M351.712,535.675l-0.721,5.766
		c-1.441,8.649-4.325,11.532-11.532,11.532h-9.369l4.324-29.55h9.369C350.991,524.144,352.433,527.747,351.712,535.675
		 M344.504,520.54h-11.531c-0.721,0-1.441,0.721-1.441,1.441l-9.37,61.982c0,0.721,0,1.441,1.441,1.441h0.721
		c0.721,0,1.441-0.721,1.441-1.441l4.324-26.667h8.649h1.441l5.045,26.667c0,0.721,0.721,1.441,1.441,1.441h0.721
		c0.721,0,1.441-0.721,1.441-1.441l-5.045-27.388c5.766-1.441,8.649-5.766,10.09-12.974l1.441-8.648
		C356.036,524.865,352.433,520.54,344.504,520.54 M322.883,520.54h-22.342c-0.721,0-1.441,0.721-1.441,1.441v0.721
		c0,0.721,0,1.441,1.441,1.441h9.37l-9.37,59.099c0,0.721,0,1.441,1.441,1.441h0.721c0.721,0,1.441-0.721,1.441-1.441l9.37-59.819
		h9.369c0.721,0,1.441-0.721,1.441-1.441v-0.721C324.324,521.261,324.324,520.54,322.883,520.54 M263.063,570.27l5.766-35.315
		c1.442-8.648,4.325-11.531,11.532-11.531s8.648,3.604,7.928,11.531l-5.766,35.315c-1.441,8.648-4.324,11.531-11.531,11.531
		C263.784,582.522,262.342,578.918,263.063,570.27 M265.946,533.513l-5.766,38.919c-1.441,8.648,2.883,13.694,10.09,13.694h0.721
		c9.369,0,12.973-5.045,14.414-13.694l5.766-38.919c1.441-8.648-2.883-13.693-10.09-13.693h-0.721
		C270.991,519.82,267.387,524.144,265.946,533.513 M259.459,520.54L259.459,520.54c-1.441,0-2.162,0.721-2.162,1.441l-19.459,55.495
		l-2.162-55.495c0-0.721-0.721-1.441-1.441-1.441h-0.721c-0.721,0-1.441,0.721-1.441,1.441l2.162,61.262
		c0,0.721,0.721,1.441,1.441,1.441h2.162c0.721,0,1.441-0.721,1.441-1.441l20.901-61.262
		C260.18,521.261,260.18,520.54,259.459,520.54 M193.153,581.801h-18.739l28.108-56.937c0-0.721,0-0.721,0.721-1.441v-0.721
		c0-0.721,0-1.441-1.441-1.441h-19.459c-0.721,0-1.441,0.721-1.441,1.441v0.721c0,0.721,0,1.441,1.441,1.441h17.297l-28.108,56.216
		c0,0.721-0.721,1.441-0.721,1.441v0.722c0,0.721,0,1.441,1.441,1.441h20.901c0.721,0,1.441-0.721,1.441-1.441v-0.722
		C194.595,581.801,194.595,581.801,193.153,581.801 M165.766,583.964L165.766,583.964c0-1.441,0-2.163-0.721-2.163h-17.297
		l4.325-27.387h14.414c0.721,0,1.441-0.721,1.441-1.441v-0.721c0-0.721,0-1.441-1.441-1.441h-14.414l4.324-26.667h16.577
		c0.721,0,1.441-0.721,1.441-1.441v-0.721c0-0.721,0-1.441-1.441-1.441h-18.739c-0.721,0-1.441,0.721-1.441,1.441l-8.649,61.262
		c0,0.721,0,1.441,1.441,1.441h18.739C165.045,584.685,165.766,584.685,165.766,583.964 M145.585,520.54h-22.342
		c-0.721,0-1.441,0.721-1.441,1.441v0.721c0,0.721,0,1.441,1.441,1.441h9.37l-9.37,59.099c0,0.721,0,1.441,1.441,1.441h0.721
		c0.721,0,1.441-0.721,1.441-1.441l9.37-59.819h9.369c0.721,0,1.441-0.721,1.441-1.441v-0.721
		C146.306,521.261,146.306,520.54,145.585,520.54 M85.766,570.27l5.766-35.315c1.441-8.648,4.324-11.531,11.531-11.531
		c7.208,0,8.649,3.604,7.928,11.531l-5.766,35.315c-1.441,8.648-4.324,11.531-11.531,11.531
		C86.486,582.522,84.324,578.918,85.766,570.27 M87.928,533.513l-5.766,38.919c-1.441,8.648,2.883,13.694,10.09,13.694h0.721
		c9.369,0,12.973-5.045,14.414-13.694l5.766-38.919c1.441-8.648-2.883-13.693-10.09-13.693h-0.721
		C92.973,519.82,89.369,524.144,87.928,533.513 M72.072,581.801H56.216l8.648-59.099c0-0.721,0-1.441-1.441-1.441l0,0
		c-0.721,0-1.441,0.721-1.441,1.441l-9.369,61.982c0,0.721,0,1.441,1.441,1.441h18.018c0.721,0,1.441-0.721,1.441-1.441v-0.721
		C73.514,581.801,72.793,581.801,72.072,581.801 M41.802,583.964l9.37-61.982c0-0.721,0-1.441-1.442-1.441h-0.721
		c-0.721,0-1.441,0.721-1.441,1.441l-9.369,61.982c0,0.721,0,1.441,1.441,1.441h0.721C41.081,584.685,41.081,584.685,41.802,583.964
		 M31.712,542.162c-1.441,8.648-4.325,11.531-11.532,11.531h-8.648l4.324-30.271h9.369c7.208,0,8.649,3.604,7.928,11.531
		L31.712,542.162z M25.946,520.54H14.415c-0.721,0-1.441,0.721-1.441,1.441l-9.37,61.982c0,0.721,0,1.441,1.441,1.441h0.721
		c0.721,0,1.441-0.721,1.441-1.441l4.325-25.946h9.369c9.37,0,12.973-5.045,14.415-13.693l0.721-10.091
		C37.478,524.865,33.874,520.54,25.946,520.54"/></g></svg>